<?xml version="1.0" encoding="UTF-8" standalone="no"?>
<svg
   xmlns:dc="http://purl.org/dc/elements/1.1/"
   xmlns:cc="http://creativecommons.org/ns#"
   xmlns:rdf="http://www.w3.org/1999/02/22-rdf-syntax-ns#"
   xmlns:svg="http://www.w3.org/2000/svg"
   xmlns="http://www.w3.org/2000/svg"
   xmlns:sodipodi="http://sodipodi.sourceforge.net/DTD/sodipodi-0.dtd"
   xmlns:inkscape="http://www.inkscape.org/namespaces/inkscape"
   width="16"
   height="16"
   viewBox="0 0 16 16"
   id="svg2"
   version="1.1"
   inkscape:version="0.91 r13725"
   sodipodi:docname="continue_until.svg"
   inkscape:export-filename="D:\progs\classpad\ruk\ruk\gui\res\toolbar\continue_until_call.png"
   inkscape:export-xdpi="90"
   inkscape:export-ydpi="90">
  <metadata
     id="metadata10">
    <rdf:RDF>
      <cc:Work
         rdf:about="">
        <dc:format>image/svg+xml</dc:format>
        <dc:type
           rdf:resource="http://purl.org/dc/dcmitype/StillImage" />
        <dc:title></dc:title>
      </cc:Work>
    </rdf:RDF>
  </metadata>
  <defs
     id="defs8" />
  <sodipodi:namedview
     pagecolor="#ffffff"
     bordercolor="#666666"
     borderopacity="1"
     objecttolerance="10"
     gridtolerance="10"
     guidetolerance="10"
     inkscape:pageopacity="0"
     inkscape:pageshadow="2"
     inkscape:window-width="1920"
     inkscape:window-height="1051"
     id="namedview6"
     showgrid="true"
     inkscape:zoom="22.627417"
     inkscape:cx="12.359515"
     inkscape:cy="5.5464162"
     inkscape:window-x="325"
     inkscape:window-y="1431"
     inkscape:window-maximized="1"
     inkscape:current-layer="svg2"
     inkscape:snap-bbox="true"
     inkscape:bbox-paths="true"
     inkscape:bbox-nodes="true"
     inkscape:snap-bbox-edge-midpoints="true"
     inkscape:snap-bbox-midpoints="true"
     inkscape:object-paths="true"
     inkscape:snap-intersection-paths="true"
     inkscape:object-nodes="true"
     inkscape:snap-smooth-nodes="true"
     inkscape:snap-midpoints="true">
    <inkscape:grid
       type="xygrid"
       id="grid3795" />
  </sodipodi:namedview>
  <path
     sodipodi:type="star"
     style="opacity:1;fill:#75beff;fill-opacity:1;stroke:none;stroke-width:0.062;stroke-linecap:round;stroke-linejoin:round;stroke-miterlimit:4;stroke-dasharray:none;stroke-opacity:0.1073171"
     id="path3797"
     sodipodi:sides="3"
     sodipodi:cx="4"
     sodipodi:cy="4"
     sodipodi:r1="4.0362678"
     sodipodi:r2="2.8540723"
     sodipodi:arg1="-0.78539816"
     sodipodi:arg2="0.26179939"
     inkscape:flatsided="true"
     inkscape:rounded="0.075"
     inkscape:randomized="0"
     d="M 6.8540723,1.1459277 C 7.2248272,1.5166826 5.5511235,7.7630296 5.044663,7.8987353 4.5382024,8.034441 -0.03444097,3.4617976 0.10126473,2.955337 0.23697044,2.4488765 6.4833174,0.77517284 6.8540723,1.1459277 Z"
     transform="matrix(0.91033896,1.2548899,-0.91033896,1.2548899,9.8036536,-2.0273744)" />
  <path
     style="opacity:1;fill:#75beff;fill-opacity:1;stroke:none;stroke-width:0.062;stroke-linecap:round;stroke-linejoin:round;stroke-miterlimit:4;stroke-dasharray:none;stroke-opacity:0.1073171"
     d="M 3.5673786,1.9335938 C 2.9171782,1.9373108 2.4315202,2.1153314 2.33113,2.25 1.8737641,2.8635346 1.8973743,13.175296 2.357496,13.785156 c 0.091522,0.1213 0.5200616,0.284424 1.0751258,0.28125 C 4.0828218,14.06269 4.5684796,13.884668 4.66887,13.75 5.126236,13.136466 5.1026256,2.8247044 4.6425046,2.2148438 4.5509824,2.0935372 4.1224428,1.9304206 3.5673786,1.9335938 Z"
     id="path4362"
     inkscape:connector-curvature="0"
     sodipodi:nodetypes="sssssss" />
  <path
     style="opacity:1;fill:#8d9599;fill-opacity:1;stroke:none;stroke-width:0.062;stroke-linecap:round;stroke-linejoin:round;stroke-miterlimit:4;stroke-dasharray:none;stroke-opacity:0.1073171"
     d="M 31.078125,2 C 30.480558,2 30,2.4805584 30,3.078125 l 0,0.84375 C 30,4.5194416 30.480558,5 31.078125,5 L 32,5 l 1,0 0,1 -2.984375,0 c 0.04192,0.5586882 0.492727,1 1.0625,1 l 1.84375,0 C 33.519442,7 34,6.5194416 34,5.921875 l 0,-0.84375 C 34,4.4805584 33.519442,4 32.921875,4 L 32,4 31,4 31,3 33.984375,3 c -0.04192,-0.5586882 -0.492727,-1 -1.0625,-1 l -1.84375,0 z"
     id="rect4393"
     inkscape:connector-curvature="0" />
  <path
     style="opacity:1;fill:#8d9599;fill-opacity:1;stroke:none;stroke-width:0.062;stroke-linecap:round;stroke-linejoin:round;stroke-miterlimit:4;stroke-dasharray:none;stroke-opacity:0.1073171"
     d="M 12 2 C 10.892 2 10 2.892 10 4 L 10 5 C 10 6.108 10.892 7 12 7 L 13 7 C 13.554 7 14 6.554 14 6 L 12 6 C 11.446 6 11 5.554 11 5 L 11 4 C 11 3.446 11.446 3 12 3 L 14 3 C 14 2.446 13.554 2 13 2 L 12 2 z "
     id="rect4508" />
</svg>
